<svg xmlns="http://www.w3.org/2000/svg" width="89" height="93" viewBox="0 0 89 93"><defs><style>.a{fill:#a3a6a9;}.b{fill:#d6faff;}</style></defs><title>wpjelly-icon2</title><path class="a" d="M26.8,90a1.5,1.5,0,0,1-1.4-.7c-.2-.2-3.7-5.9,1.2-16.6S23.2,52.1,23.1,52a1.6,1.6,0,0,1,.3-2.4,1.7,1.7,0,0,1,2.3.3c.4.5,9.3,12.3,3.9,24.1-4.1,9-1.5,13.5-1.4,13.5a1.7,1.7,0,0,1-.5,2.3A1.5,1.5,0,0,1,26.8,90Z"/><path class="a" d="M40.4,90a1.7,1.7,0,0,1-1.4-.7c-.1-.2-3.7-5.9,1.3-16.6q2.9-6.3,0-14.1A28.5,28.5,0,0,0,36.7,52a1.8,1.8,0,0,1,.3-2.4,1.7,1.7,0,0,1,2.3.3c.4.5,9.4,12.3,4,24.1-4.1,9-1.5,13.5-1.5,13.5a1.6,1.6,0,0,1-.5,2.3A1.3,1.3,0,0,1,40.4,90Z"/><path class="a" d="M33.4,90a1.5,1.5,0,0,1-1.4-.7c-.2-.2-3.7-5.9,1.2-16.6q2.8-6.3,0-14.1A26.3,26.3,0,0,0,29.7,52a1.7,1.7,0,0,1,.2-2.4,1.8,1.8,0,0,1,2.4.3c.3.5,9.3,12.3,3.9,24.1-4.1,9-1.5,13.5-1.5,13.5a1.7,1.7,0,0,1-.4,2.3A1.5,1.5,0,0,1,33.4,90Z"/><path class="a" d="M47.5,90a1.6,1.6,0,0,1-1.4-.7c-.1-.2-3.7-5.9,1.2-16.6q2.9-6.3,0-14.1A26.3,26.3,0,0,0,43.8,52a1.7,1.7,0,1,1,2.6-2.1c.4.5,9.3,12.3,3.9,24.1-4.1,9-1.5,13.5-1.4,13.5a1.6,1.6,0,0,1-.5,2.3A1.5,1.5,0,0,1,47.5,90Z"/><path class="a" d="M54.1,90a1.5,1.5,0,0,1-1.4-.7c-.2-.2-3.7-5.9,1.2-16.6q2.9-6.3,0-14.1A26.3,26.3,0,0,0,50.4,52a1.6,1.6,0,0,1,.3-2.4,1.7,1.7,0,0,1,2.3.3c.4.5,9.3,12.3,3.9,24.1-4.1,9-1.5,13.5-1.4,13.5a1.7,1.7,0,0,1-.5,2.3A1.5,1.5,0,0,1,54.1,90Z"/><path class="a" d="M79.2,40.9a36,36,0,0,0-72,0V53h0a9.7,9.7,0,0,0,17.2,5.8,1.4,1.4,0,0,1,2.5,0,9.7,9.7,0,0,0,15.1,0c.8-1.1,1.6-1.1,2.5,0A9.5,9.5,0,0,0,52,62.4a9.7,9.7,0,0,0,7.6-3.6q1.2-1.6,2.4,0a9.7,9.7,0,0,0,17.3-6.1c0-.3-.1-.6-.1-.9Z"/><rect x="28.7" y="23.4" width="6.1" height="15.42" rx="3"/><rect class="b" x="30.2" y="25.4" width="2.5" height="3.91" rx="1.2"/><rect x="51" y="23.4" width="6.1" height="15.42" rx="3"/><rect class="b" x="52.6" y="25.4" width="2.5" height="3.91" rx="1.2"/><path d="M42.3,47.4h0c-4.8,0-6.7-3.3-7-5a1,1,0,0,1,.8-1.2,1,1,0,0,1,1.1.8,5,5,0,0,0,.9,1.8,5.4,5.4,0,0,0,4.2,1.7,5.4,5.4,0,0,0,4.2-1.7,5,5,0,0,0,.9-1.8,1,1,0,0,1,1.1-.8,1.1,1.1,0,0,1,.8,1.2c-.3,1.7-2.2,5-7,5Z"/></svg>